<svg xmlns="http://www.w3.org/2000/svg" viewBox="0 0 678.31 557.81"><defs><style>svg{fill:#1f0f55;}</style></defs><title>Ресурс 6</title><g id="Слой_2" data-name="Слой 2"><g id="Слой_1-2" data-name="Слой 1"><rect x="156.85" y="267.41" width="34.37" height="199" transform="translate(348.06 733.82) rotate(180)"/><rect x="156.85" y="266.78" width="34.37" height="200.25" transform="translate(-192.88 540.94) rotate(-90)"/><rect x="481.11" y="417.44" width="48.34" height="48.34" transform="translate(1010.56 883.23) rotate(180)"/><rect x="481.11" y="268.03" width="48.34" height="48.34" transform="translate(1010.56 584.4) rotate(180)"/><rect x="555.82" y="342.74" width="48.34" height="48.34" transform="translate(213.08 946.89) rotate(-90)"/><rect x="406.41" y="342.74" width="48.34" height="48.34" transform="translate(63.67 797.48) rotate(-90)"/><polygon points="356.34 177.04 321.97 177.04 245.95 98.42 326.14 0 360.5 0 280.31 98.42 356.34 177.04"/><rect y="175.41" width="34.37" height="382.41" transform="translate(34.37 733.22) rotate(180)"/><rect x="643.94" y="175.41" width="34.37" height="382.41" transform="translate(1322.26 733.22) rotate(180)"/><rect x="321.97" y="-146.86" width="34.37" height="678" transform="translate(147.01 531.3) rotate(-90)"/><rect x="321.97" y="201.63" width="34.37" height="678" transform="translate(-201.48 879.79) rotate(-90)"/></g></g></svg>