<svg xmlns="http://www.w3.org/2000/svg" viewBox="0 0 679.31 427.83"><defs><style>svg{fill:#1f0f55;}</style></defs><title>Ресурс 5</title><g id="Слой_2" data-name="Слой 2"><g id="Слой_1-2" data-name="Слой 1"><path d="M157.82,127.26l-.1,0,27.07,29.18.1,0,93.52-39V75.65Z"/><polygon points="45.33 214.56 278.41 311.04 278.41 352.9 0 234.32 0 194.8 126.46 140.69 39.72 47.22 0.26 89.74 0.26 42.52 39.72 0 157.82 127.26 157.72 127.3 184.79 156.48 249.24 225.92 330.01 194.14 363.24 208.43 235.5 258.69 235.52 257.88 235.2 258.02 153.18 169.64 45.33 214.56"/><polygon points="679.31 194.8 679.31 234.33 678.26 234.78 554.32 287.56 640.68 380.61 678.26 340.12 678.26 387.34 640.68 427.83 547.67 327.61 522.92 300.93 522.88 300.95 400.9 352.9 400.9 311.05 495.79 271.77 447.33 219.55 366.03 251.54 332.8 237.25 460.54 186.98 460.54 187.16 460.93 186.99 527.45 258.66 633.98 214.56 400.9 117.5 400.9 75.65 678.26 194.35 679.31 194.8"/><polygon points="547.67 327.61 547.67 327.67 522.88 300.95 522.92 300.93 547.67 327.61"/></g></g></svg>