<svg xmlns="http://www.w3.org/2000/svg" viewBox="0 0 677.97 677"><defs><style>svg{fill:#1f0f55;}</style></defs><title>Ресурс 2</title><g id="Слой_2" data-name="Слой 2"><g id="Слой_1-2" data-name="Слой 1"><polygon points="229 470 205 446 590.33 59.31 615.91 84.88 229 470"/><polygon points="671.91 338.88 332.22 677 283.92 677 646.33 313.31 671.91 338.88"/><polygon points="304.91 92.88 0 396.38 0 347.63 279.33 67.31 304.91 92.88"/><rect x="604.04" y="36.44" width="0.54" height="72.94" transform="translate(125.39 448.59) rotate(-44.99)"/><polygon points="677.97 0 677.97 146.95 629.91 98.88 578.33 47.31 531.03 0 677.97 0"/><polygon points="162.05 61.05 308.99 61.05 308.99 208 162.05 61.05"/><polygon points="529.39 309.88 676.34 310.08 676.13 457.03 529.39 309.88"/></g></g></svg>