<svg xmlns="http://www.w3.org/2000/svg" viewBox="0 0 678 677"><defs><style>svg{fill:#1f0f55;}</style></defs><title>Ресурс 1</title><g id="Слой_2" data-name="Слой 2"><g id="Слой_1-2" data-name="Слой 1"><rect x="157" y="156.5" width="364" height="364"/><rect x="322" width="33" height="157"/><polygon points="223 157 190 157 190 113.5 115 16 148 16 223 113.5 223 157"/><rect x="388" y="113.85" width="33" height="43.15"/><rect x="256" y="113.85" width="33" height="43.15"/><rect x="110" width="60" height="60"/><rect x="442" y="18" width="57" height="57"/><rect x="454" y="46" width="33" height="111"/><rect x="583" y="258" width="33" height="157" transform="translate(936 -263) rotate(90)"/><polygon points="521 221 521 188 564.5 188 662 113 662 146 564.5 221 521 221"/><rect x="526.07" y="380.93" width="33" height="43.15" transform="translate(945.07 -140.07) rotate(90)"/><rect x="526.07" y="248.93" width="33" height="43.15" transform="translate(813.07 -272.07) rotate(90)"/><rect x="618" y="108" width="60" height="60" transform="translate(786 -510) rotate(90)"/><rect x="603" y="440" width="57" height="57" transform="translate(1100 -163) rotate(90)"/><rect x="560" y="413" width="33" height="111" transform="translate(1045 -108) rotate(90)"/><rect x="62" y="260" width="33" height="157" transform="translate(-260 417) rotate(-90)"/><polygon points="157 454 157 487 113.5 487 16 562 16 529 113.5 454 157 454"/><rect x="118.93" y="250.93" width="33" height="43.15" transform="translate(-137.07 407.93) rotate(-90)"/><rect x="118.93" y="382.93" width="33" height="43.15" transform="translate(-269.07 539.93) rotate(-90)"/><rect y="507" width="60" height="60" transform="translate(-507 567) rotate(-90)"/><rect x="18" y="178" width="57" height="57" transform="translate(-160 253) rotate(-90)"/><rect x="85" y="151" width="33" height="111" transform="translate(-105 308) rotate(-90)"/><rect x="322" y="520" width="33" height="157" transform="translate(677 1197) rotate(180)"/><polygon points="454 520 487 520 487 563.5 562 661 529 661 454 563.5 454 520"/><rect x="256" y="520" width="33" height="43.15" transform="translate(545 1083.15) rotate(180)"/><rect x="388" y="520" width="33" height="43.15" transform="translate(809 1083.15) rotate(180)"/><rect x="507" y="617" width="60" height="60" transform="translate(1074 1294) rotate(180)"/><rect x="178" y="602" width="57" height="57" transform="translate(413 1261) rotate(180)"/><rect x="190" y="520" width="33" height="111" transform="translate(413 1151) rotate(180)"/></g></g></svg>